<?xml version="1.0"?>
<svg version="1.1" xmlns="http://www.w3.org/2000/svg" width="150" height="40" style=""><path fill="#46a6eb" d="M22.924,38.088q0-0.784,3.22-6.076q-2.296,0-3.052,0.196q-1.26,0.308-1.876,1.26q-0.224,0.308-0.378,0.336t-0.154-0.126t0.112-0.266q1.064-1.428,2.1-1.96t3.276-0.532l0.672,0q1.708-2.604,4.788-7.728q1.148-2.156,1.148-3.5q0-2.156-2.632-2.184l-0.308,0q-3.584,0-6.524,1.792t-4.648,4.452t-1.708,4.788q0,2.604,2.436,2.604q1.932,0,3.304-1.708t1.372-3.248q0-0.868-0.448-1.428q-0.056-0.056-0.056-0.14q0-0.196,0.224-0.196q0.112,0,0.168,0.084q0.56,0.728,0.56,1.736q0,1.708-1.4,3.486t-2.94,1.974q-0.476,0.084-0.924,0.084q-1.792,0-2.772-1.148q-0.952-1.036-0.952-2.8q0-0.728,0.168-1.484q0.84-3.78,4.858-6.608t9.03-2.828q1.932,0,3.318,0.826t1.386,2.31t-1.036,3.136l-5.068,7.784q0.896,0.028,3.206,0.266t3.472,0.238t1.554-0.028l1.064-1.764q2.716-4.564,6.286-8.526t6.23-4.914q0.084-0.028,0.168-0.028q0.196,0,0.196,0.224q0,0.084-0.084,0.14q-1.792,1.008-5.138,4.886t-5.782,7.966l-1.092,1.848q1.288-0.168,1.848-0.644q0.112-0.084,0.196,0.098t-0.028,0.266q-0.84,0.644-2.38,0.924q-1.96,3.64-1.96,5.124q0,0.952,0.812,0.952q0.56,0,1.302-0.378t0.994-0.644t0.308-0.266t0.028,0.182t-0.112,0.294q-0.476,0.448-1.428,0.952t-1.54,0.504t-0.868-0.196q-0.896-0.588-0.896-2.044t1.484-4.256q-1.036,0.084-1.932,0.084q-0.308,0-6.58-0.196q-1.988,3.136-3.192,5.712q-0.364,0.756-0.882,0.756t-0.518-0.42z M52.16076,28.428l0.392-0.084q0.308,0,0.588,0.252t0.28,0.392t-1.736,2.702t-1.736,3.57q0,0.084,0.028,0.168q0.14,0.644,0.616,0.644q1.456,0,5.32-4.816q0.084-0.112,0.196-0.112t0.112,0.21t-0.252,0.546q-3.584,4.788-5.46,4.788q-0.252,0-0.476-0.084q-1.232-0.476-1.232-1.848q0-0.476,0.112-0.952l-1.736,1.68q-1.652,1.456-2.394,1.456t-1.414-0.476q-0.756-0.56-0.756-1.484q0-2.044,2.856-4.886t5.236-2.842q0.924,0,1.232,0.644q0.084,0.224,0.14,0.378t0.084,0.154z M43.78876,35.316q0,1.008,0.7,1.008q1.624,0,4.424-3.556l2.968-4.088q-0.224-0.392-0.728-0.392q-1.708,0-4.536,2.646t-2.828,4.382z M61.34952,36.94q-2.1,0-2.1-2.324q0-1.176,0.616-2.576t1.344-2.352q-0.14,0.028-0.364,0.028q-0.672,0-1.12-0.952l-2.072,2.688q-1.736,2.156-2.016,2.156q-0.14,0-0.14-0.112q0-0.28,0.476-0.812q2.436-2.828,3.444-4.788q0.644-2.436,1.624-2.436q0.644,0,0.644,0.56t-0.7,1.428l-0.672,0.896q0,0.588,0.868,0.588q0.504,0,1.12-0.364l0.728-0.448q0.056-0.028,0.28-0.028t0.476,0.28t0.168,0.504l-1.932,2.436q-1.792,2.296-1.792,3.626t1.232,1.33q1.288,0,3.164-1.372q1.12-0.812,2.044-1.82q0.868-1.008,0.952-1.008q0.196,0,0.196,0.21t-0.252,0.49l-0.896,1.008q-0.756,0.784-1.68,1.512q-2.212,1.652-3.64,1.652z M73.61828,36.94q-2.1,0-2.1-2.324q0-1.176,0.616-2.576t1.344-2.352q-0.14,0.028-0.364,0.028q-0.672,0-1.12-0.952l-2.072,2.688q-1.736,2.156-2.016,2.156q-0.14,0-0.14-0.112q0-0.28,0.476-0.812q2.436-2.828,3.444-4.788q0.644-2.436,1.624-2.436q0.644,0,0.644,0.56t-0.7,1.428l-0.672,0.896q0,0.588,0.868,0.588q0.504,0,1.12-0.364l0.728-0.448q0.056-0.028,0.28-0.028t0.476,0.28t0.168,0.504l-1.932,2.436q-1.792,2.296-1.792,3.626t1.232,1.33q1.288,0,3.164-1.372q1.12-0.812,2.044-1.82q0.868-1.008,0.952-1.008q0.196,0,0.196,0.21t-0.252,0.49l-0.896,1.008q-0.756,0.784-1.68,1.512q-2.212,1.652-3.64,1.652z M87.04904,25.642q0.378,0.266,0.378,0.63t-0.35,0.63t-0.77,0.266t-0.77-0.308t-0.35-0.7q0-0.784,1.064-0.784q0.42,0,0.798,0.266z M81.18304,37.108q-1.428,0-1.428-1.848q0-1.512,1.652-4.186t2.66-2.702q0.28,0,0.63,0.224t0.35,0.448q-0.14,0.196-0.336,0.434t-0.42,0.518t-0.616,0.798t-0.756,0.994q-2.1,2.716-2.1,3.738t0.7,1.022q0.588,0,1.596-0.644q2.352-1.456,3.724-3.192q0.504-0.644,0.686-0.644t0.182,0.224t-0.644,0.896t-1.022,1.064t-0.518,0.518t-0.518,0.476t-0.574,0.49t-0.56,0.42t-0.644,0.406t-0.644,0.294q-0.588,0.252-1.4,0.252z M92.8918,36.38q-0.812,0.476-2.002,0.476t-1.82-0.784t-1.078-2.492q-0.504,0.504-0.7,0.504q-0.14,0-0.14-0.196t0.14-0.336q0.924-1.148,3.136-3.304l3.528-3.304q1.512-1.428,1.792-1.428q0.896,0,0.896,0.672q0,0.336-0.266,0.658t-0.392,0.504t-0.266,0.35q-0.504,0.868-1.022,3.584t-0.798,3.78q2.324-0.028,4.788-3.024q0.28-0.28,0.42-0.28t0.14,0.182t-0.252,0.49q-1.624,1.904-3.024,2.66q-0.84,0.42-2.184,0.7z M89.1118,33.272q0,0.952,0.63,1.554t1.414,0.602t1.204-0.308q0.56-0.308,1.106-2.576t0.658-4.004l0.112-0.952q-1.54,1.148-3.29,2.968t-1.806,2.408q-0.028,0.168-0.028,0.308z"/><path fill="#" d=""/></svg>
